# xmcd
#
# Track frame offsets:
#       150
#       13375
#       27932
#       41047
#       53952
#       65032
#       76017
#       89892
#       101742
#       116435
#       129530
#       144050
#       157767
#       170412
#       183935
#       195122
#       205990
#       218555
#       231310
#
# Disc length: 3261 seconds
#
# Revision: 0
# Processed by: cddbd v1.4PL0 Copyright (c) Steve Scherf et al.
# Submitted via: CD-DA_X-Tractor v0.21
#
DISCID=010cbb13
DTITLE=Dinah Washington - The Best In Blues  (Verve Elit
DYEAR=1900
DGENRE=
TTITLE0=Evil Gal Blues
TTITLE1=I Know How to Do It
TTITLE2=Baby, Get Lost
TTITLE3=Trouble in Mind
TTITLE4=Fat Daddy
TTITLE5=TV is the Thing This Year
TTITLE6=Salty Pappa Blues
TTITLE7=New Blowtop Blues
TTITLE8=Gambler's Blues
TTITLE9=Don't Hold It Against Me
TTITLE10=Long John Blues
TTITLE11=Homeward Bound
TTITLE12=TV is the Thing This Year ( altern.take )
TTITLE13=Baby, Get Lost ( altern.take )
TTITLE14=Good Daddy Blues
TTITLE15=Good Daddy Blues ( altern.take )
TTITLE16=Drummer Man ( poss.Teddy Stewart )
TTITLE17=Drummer Man
TTITLE18=Be Fair To Me
EXTD=
EXTT0=
EXTT1=
EXTT2=
EXTT3=
EXTT4=
EXTT5=
EXTT6=
EXTT7=
EXTT8=
EXTT9=
EXTT10=
EXTT11=
EXTT12=
EXTT13=
EXTT14=
EXTT15=
EXTT16=
EXTT17=
EXTT18=
PLAYORDER=
